<?xml version="1.0" encoding="UTF-8"?>
<svg xmlns="http://www.w3.org/2000/svg" id="Layer_1" data-name="Layer 1" viewBox="0 0 24 24">
  <path d="m12,13c-3.847,0-8,3.059-8,8,0,1.935,1.065,3,3,3,.701,0,1.37-.213,2.078-.438.826-.263,1.763-.562,2.922-.562s2.096.298,2.922.562c.708.226,1.377.438,2.078.438,1.935,0,3-1.065,3-3,0-4.941-4.153-8-8-8Zm5,10c-.545,0-1.115-.182-1.774-.392-.896-.285-1.911-.608-3.226-.608s-2.33.323-3.226.608c-.659.21-1.229.392-1.774.392-1.383,0-2-.617-2-2,0-4.324,3.633-7,7-7s7,2.676,7,7c0,1.383-.617,2-2,2Zm-1.533-12c1.417,0,2.761-1.789,2.997-3.987.122-1.131-.072-2.156-.547-2.886-.053-.081-.117-.145-.175-.218.166-.37.234-.724.258-1.058.083-1.191-.694-2.137-1.403-2.743-.322-.276-.813.018-.723.432.086.395.147.852.126,1.311-.018.403-.129.806-.312,1.172-1.384.131-2.44,1.467-2.651,3.433-.125,1.164.072,2.328.542,3.193.25.461.909,1.351,1.889,1.351Zm-1.436-4.438c.165-1.533.917-2.562,1.873-2.562.65,0,.917.274,1.175.672.349.537.488,1.331.391,2.234-.206,1.914-1.302,3.09-2.069,3.09h-.004c-.471-.048-.814-.592-.939-.824-.375-.691-.53-1.643-.426-2.61Zm-9.083,5.458c-.206-1.822-1.26-3.037-2.636-3.006-.18-.363-.288-.764-.306-1.163-.021-.459.04-.916.126-1.311.09-.414-.401-.708-.723-.432C.7,6.714-.077,7.66.006,8.851c.028.401.125.937.377,1.42-.311.61-.441,1.384-.344,2.239.217,1.924,1.437,3.49,2.718,3.49.832,0,1.462-.766,1.69-1.164.434-.763.617-1.79.501-2.816Zm-1.37,2.32c-.106.186-.393.621-.821.66-.598,0-1.542-.99-1.724-2.602-.086-.76.034-1.423.336-1.865.216-.315.5-.533.982-.533.814,0,1.459.857,1.603,2.132.093.821-.044,1.626-.375,2.208Zm1.963-7.328c.235,2.199,1.58,3.987,2.997,3.987.974,0,1.639-.89,1.889-1.351.469-.865.667-2.029.542-3.193-.212-1.969-1.267-3.309-2.658-3.434-.182-.366-.293-.769-.311-1.171-.021-.459.04-.916.126-1.311.09-.414-.401-.708-.723-.432-.709.607-1.486,1.553-1.403,2.743.023.335.092.69.259,1.062-.057.071-.12.134-.172.214-.474.73-.667,1.755-.546,2.886Zm4.433-.45c.104.967-.052,1.918-.426,2.61-.125.232-.469.776-1.01.828-.698,0-1.797-1.177-2.002-3.094-.097-.904.042-1.697.39-2.234.259-.397.574-.672,1.176-.672.956,0,1.708,1.03,1.873,2.562Zm14.025,2.289c.083-1.191-.694-2.137-1.403-2.743-.322-.276-.813.018-.723.432.086.395.147.852.126,1.311-.018.399-.127.8-.307,1.164-1.353-.023-2.43,1.184-2.635,3.005-.116,1.027.067,2.054.501,2.816.227.398.799,1.164,1.689,1.164,1.281,0,2.5-1.565,2.718-3.49.096-.855-.034-1.629-.344-2.239.252-.483.349-1.019.377-1.42Zm-1.027,3.547c-.182,1.61-1.125,2.6-1.775,2.6h-.003c-.375-.036-.662-.472-.767-.657-.332-.582-.469-1.387-.376-2.208.144-1.275.788-2.132,1.603-2.132.524,0,.766.217.981.532.303.443.422,1.106.336,1.866Z"/>
</svg>
